<svg width="18" height="22" viewBox="0 0 18 22" fill="none" xmlns="http://www.w3.org/2000/svg">
<path d="M9.78107 3.41977L8.1929 3.41652C4.57023 3.40786 1.42532 6.35127 1.4004 9.91652V14.0224C1.4004 14.8782 1.29207 15.7134 0.825149 16.4252L0.514232 16.8997C0.0408152 17.619 0.549982 18.5832 1.4004 18.5832H16.5996C17.45 18.5832 17.9581 17.619 17.4857 16.8997L17.1748 16.4252C16.709 15.7134 16.5996 14.8771 16.5996 14.0213V9.91761C16.5562 6.35127 13.4037 3.42844 9.78107 3.41977V3.41977Z" fill="#BEBEC2"/>
<path d="M12.25 18.5835C12.25 19.4454 11.9076 20.2721 11.2981 20.8816C10.6886 21.4911 9.86195 21.8335 9 21.8335C8.13805 21.8335 7.3114 21.4911 6.7019 20.8816C6.09241 20.2721 5.75 19.4454 5.75 18.5835" fill="#6F6E73"/>
<path d="M8.99999 0.166504C9.57463 0.166504 10.1257 0.394777 10.5321 0.801106C10.9384 1.20743 11.1667 1.75853 11.1667 2.33317V3.4165H6.83333V2.33317C6.83333 1.75853 7.0616 1.20743 7.46793 0.801106C7.87426 0.394777 8.42536 0.166504 8.99999 0.166504Z" fill="#6F6E73"/>
</svg>
