<svg width="36" height="35" viewBox="0 0 36 35" fill="none" xmlns="http://www.w3.org/2000/svg">
<circle cx="17.519" cy="17.5" r="17.5" fill="#54AAF9"/>
<g clip-path="url(#clip0_7_1835)">
<path d="M8.76904 14L9.91004 14.9126C10.3075 15.2306 10.7696 15.458 11.264 15.579C11.7584 15.7 12.2733 15.7117 12.7727 15.6134C13.2721 15.515 13.744 15.3089 14.1556 15.0094C14.5672 14.7099 14.9085 14.3242 15.1557 13.8792L17.519 9.625L19.8824 13.8792C20.1297 14.3241 20.4711 14.7097 20.8827 15.0091C21.2943 15.3085 21.7662 15.5146 22.2656 15.6129C22.765 15.7112 23.2798 15.6994 23.7742 15.5783C24.2686 15.4572 24.7306 15.2297 25.128 14.9117L26.269 14L24.7343 21.6738C24.6673 22.0086 24.5247 22.3238 24.3174 22.5952C24.1101 22.8667 23.8436 23.0872 23.5382 23.24V23.24C21.6693 24.1745 19.6085 24.661 17.519 24.661C15.4296 24.661 13.3688 24.1745 11.4999 23.24V23.24C11.1945 23.0872 10.928 22.8667 10.7207 22.5952C10.5134 22.3238 10.3708 22.0086 10.3038 21.6738L8.76904 14Z" stroke="white" stroke-width="2" stroke-linecap="round" stroke-linejoin="round"/>
<path d="M14.019 20.125C16.2905 21.2914 18.7475 21.2914 21.019 20.125" stroke="white" stroke-width="2" stroke-linecap="round" stroke-linejoin="round"/>
</g>
<defs>
<clipPath id="clip0_7_1835">
<rect width="21" height="21" fill="white" transform="translate(7.01904 7)"/>
</clipPath>
</defs>
</svg>
