<svg width="36" height="35" viewBox="0 0 36 35" fill="none" xmlns="http://www.w3.org/2000/svg">
<circle cx="17.519" cy="17.5" r="17.5" fill="#F98F54"/>
<path d="M25.394 21.0002V14.0002C25.3937 13.6933 25.3127 13.3919 25.1591 13.1262C25.0056 12.8605 24.7848 12.6399 24.519 12.4864L18.394 8.98641C18.128 8.83281 17.8262 8.75195 17.519 8.75195C17.2119 8.75195 16.9101 8.83281 16.644 8.98641L10.519 12.4864C10.2533 12.6399 10.0325 12.8605 9.87895 13.1262C9.72537 13.3919 9.64436 13.6933 9.64404 14.0002V21.0002C9.64436 21.307 9.72537 21.6084 9.87895 21.8741C10.0325 22.1398 10.2533 22.3605 10.519 22.5139L16.644 26.0139C16.9101 26.1675 17.2119 26.2484 17.519 26.2484C17.8262 26.2484 18.128 26.1675 18.394 26.0139L24.519 22.5139C24.7848 22.3605 25.0056 22.1398 25.1591 21.8741C25.3127 21.6084 25.3937 21.307 25.394 21.0002Z" stroke="white" stroke-width="2" stroke-linecap="round" stroke-linejoin="round"/>
<path d="M9.88028 13.0898L17.519 17.5086L25.1578 13.0898" stroke="white" stroke-width="2" stroke-linecap="round" stroke-linejoin="round"/>
<path d="M17.519 26.32V17.5" stroke="white" stroke-width="2" stroke-linecap="round" stroke-linejoin="round"/>
</svg>
