<svg width="36" height="35" viewBox="0 0 36 35" fill="none" xmlns="http://www.w3.org/2000/svg">
<circle cx="17.519" cy="17.5" r="17.5" fill="#32404E"/>
<g clip-path="url(#clip0_7_1863)">
<path d="M14.894 20.125L12.297 22.722C12.008 23.011 11.6398 23.2078 11.2389 23.2875C10.838 23.3672 10.4225 23.3263 10.0449 23.1699C9.66732 23.0135 9.34456 22.7486 9.11746 22.4088C8.89036 22.069 8.76911 21.6695 8.76904 21.2608V20.125L9.95642 14.189C10.115 13.3956 10.5436 12.6816 11.1693 12.1685C11.7949 11.6555 12.579 11.3751 13.3882 11.375H21.6499C22.459 11.3751 23.2431 11.6555 23.8688 12.1685C24.4945 12.6816 24.9231 13.3956 25.0817 14.189L26.269 20.125V21.2599C26.269 21.6686 26.1477 22.0681 25.9206 22.4079C25.6935 22.7477 25.3708 23.0126 24.9932 23.169C24.6156 23.3254 24.2 23.3663 23.7992 23.2866C23.3983 23.2069 23.0301 23.0101 22.741 22.7211L20.144 20.125H14.894Z" stroke="white" stroke-width="2" stroke-linecap="round" stroke-linejoin="round"/>
<path d="M14.894 11.375L15.769 13.125H19.269L20.144 11.375" stroke="white" stroke-width="2" stroke-linecap="round" stroke-linejoin="round"/>
</g>
<defs>
<clipPath id="clip0_7_1863">
<rect width="21" height="21" fill="white" transform="translate(7.01904 7)"/>
</clipPath>
</defs>
</svg>
