<svg width="36" height="35" viewBox="0 0 36 35" fill="none" xmlns="http://www.w3.org/2000/svg">
<circle cx="17.519" cy="17.5" r="17.5" fill="#34AE91"/>
<path d="M10.4989 15.61C10.5341 15.1715 10.7332 14.7623 11.0565 14.4639C11.3799 14.1655 11.8037 13.9999 12.2437 14H22.7944C23.2344 13.9999 23.6582 14.1655 23.9815 14.4639C24.3049 14.7623 24.504 15.1715 24.5392 15.61L25.2418 24.36C25.2611 24.6008 25.2304 24.843 25.1515 25.0713C25.0727 25.2996 24.9474 25.5092 24.7836 25.6867C24.6197 25.8643 24.4209 26.006 24.1997 26.1029C23.9784 26.1998 23.7395 26.2499 23.4979 26.25H11.5402C11.2986 26.2499 11.0597 26.1998 10.8384 26.1029C10.6171 26.006 10.4183 25.8643 10.2545 25.6867C10.0907 25.5092 9.96543 25.2996 9.88656 25.0713C9.8077 24.843 9.77696 24.6008 9.79629 24.36L10.4989 15.61V15.61Z" stroke="white" stroke-width="2" stroke-linecap="round" stroke-linejoin="round"/>
<path d="M21.019 16.625V12.25C21.019 11.3217 20.6503 10.4315 19.9939 9.77513C19.3375 9.11875 18.4473 8.75 17.519 8.75C16.5908 8.75 15.7005 9.11875 15.0442 9.77513C14.3878 10.4315 14.019 11.3217 14.019 12.25V16.625" stroke="white" stroke-width="2" stroke-linecap="round" stroke-linejoin="round"/>
</svg>
