<svg width="21" height="20" viewBox="0 0 21 20" fill="none" xmlns="http://www.w3.org/2000/svg">
<g clip-path="url(#clip0_7_1878)">
<path d="M17.519 17.4998L13.7807 13.7548L17.519 17.4998ZM15.8524 8.74984C15.8524 10.6285 15.1061 12.4301 13.7777 13.7585C12.4493 15.0869 10.6476 15.8332 8.76903 15.8332C6.89042 15.8332 5.08874 15.0869 3.76036 13.7585C2.43198 12.4301 1.6857 10.6285 1.6857 8.74984C1.6857 6.87122 2.43198 5.06955 3.76036 3.74116C5.08874 2.41278 6.89042 1.6665 8.76903 1.6665C10.6476 1.6665 12.4493 2.41278 13.7777 3.74116C15.1061 5.06955 15.8524 6.87122 15.8524 8.74984V8.74984Z" stroke="#5E6872" stroke-width="2" stroke-linecap="round" stroke-linejoin="round"/>
</g>
<defs>
<clipPath id="clip0_7_1878">
<rect width="20" height="20" fill="white" transform="translate(0.019043)"/>
</clipPath>
</defs>
</svg>
