<svg width="36" height="35" viewBox="0 0 36 35" fill="none" xmlns="http://www.w3.org/2000/svg">
<circle cx="17.519" cy="17.5" r="17.5" fill="#885FFF"/>
<g clip-path="url(#clip0_7_1845)">
<path d="M11.7738 16.113C14.1809 16.113 16.1323 14.1616 16.1323 11.7545C16.1323 9.34736 14.1809 7.396 11.7738 7.396C9.36665 7.396 7.41528 9.34736 7.41528 11.7545C7.41528 14.1616 9.36665 16.113 11.7738 16.113Z" fill="white"/>
</g>
<path d="M22.5848 8.52858C22.8927 8.01586 23.636 8.01586 23.9439 8.52858L27.2991 14.1205C27.6161 14.6487 27.2357 15.3207 26.6196 15.3207H19.9091C19.2934 15.3207 18.913 14.6487 19.2296 14.1205L22.5848 8.52858Z" fill="white"/>
<g clip-path="url(#clip1_7_1845)">
<path d="M26.4341 19.2832H20.0945C19.6569 19.2832 19.3021 19.638 19.3021 20.0757V26.4153C19.3021 26.8529 19.6569 27.2077 20.0945 27.2077H26.4341C26.8718 27.2077 27.2266 26.8529 27.2266 26.4153V20.0757C27.2266 19.638 26.8718 19.2832 26.4341 19.2832Z" fill="white"/>
<path d="M22.7135 19.5113C22.8596 19.3652 23.0577 19.2832 23.2643 19.2832C23.4708 19.2832 23.6689 19.3652 23.815 19.5113L26.9983 22.6946C27.1443 22.8407 27.2264 23.0388 27.2264 23.2453C27.2264 23.4519 27.1443 23.65 26.9983 23.7961L23.815 26.9794C23.6689 27.1254 23.4708 27.2075 23.2643 27.2075C23.0577 27.2075 22.8596 27.1254 22.7135 26.9794L19.5302 23.7961C19.3842 23.65 19.3021 23.4519 19.3021 23.2453C19.3021 23.0388 19.3842 22.8407 19.5302 22.6946L22.7135 19.5113Z" fill="white"/>
</g>
<g clip-path="url(#clip2_7_1845)">
<path d="M11.2229 19.5113C11.369 19.3652 11.5671 19.2832 11.7737 19.2832C11.9802 19.2832 12.1784 19.3652 12.3244 19.5113L15.5077 22.6946C15.6538 22.8407 15.7358 23.0388 15.7358 23.2453C15.7358 23.4519 15.6538 23.65 15.5077 23.7961L12.3244 26.9794C12.1784 27.1254 11.9802 27.2075 11.7737 27.2075C11.5671 27.2075 11.369 27.1254 11.2229 26.9794L8.03964 23.7961C7.8936 23.65 7.81155 23.4519 7.81155 23.2453C7.81155 23.0388 7.8936 22.8407 8.03964 22.6946L11.2229 19.5113Z" fill="white"/>
</g>
<defs>
<clipPath id="clip0_7_1845">
<rect width="9.50943" height="9.50943" fill="white" transform="translate(7.01904 7)"/>
</clipPath>
<clipPath id="clip1_7_1845">
<rect width="9.50943" height="9.50943" fill="white" transform="translate(18.5096 18.4907)"/>
</clipPath>
<clipPath id="clip2_7_1845">
<rect width="9.50943" height="9.50943" fill="white" transform="translate(7.01904 18.4907)"/>
</clipPath>
</defs>
</svg>
